<?xml version="1.0" standalone="no"?>
<!DOCTYPE svg PUBLIC "-//W3C//DTD SVG 20010904//EN"
 "http://www.w3.org/TR/2001/REC-SVG-20010904/DTD/svg10.dtd">
<svg version="1.0" xmlns="http://www.w3.org/2000/svg"
 width="64.000000pt" height="64.000000pt" viewBox="0 0 64.000000 64.000000"
 preserveAspectRatio="xMidYMid meet">
<metadata>
Created by potrace 1.16, written by Peter Selinger 2001-2019
</metadata>
<g transform="translate(0.000000,64.000000) scale(0.100000,-0.100000)"
fill="#000000" stroke="none">
<path d="M270 620 c-19 -19 -20 -33 -20 -250 0 -217 1 -231 20 -250 11 -11 33
-20 50 -20 17 0 39 9 50 20 19 19 20 33 20 250 0 217 -1 231 -20 250 -11 11
-33 20 -50 20 -17 0 -39 -9 -50 -20z m70 -30 c22 -14 22 -426 0 -440 -19 -12
-21 -12 -40 0 -22 14 -22 426 0 440 8 5 17 10 20 10 3 0 12 -5 20 -10z"/>
<path d="M490 470 c-18 -18 -20 -33 -20 -190 0 -141 2 -170 14 -170 12 0 15
29 18 160 2 130 6 163 18 170 19 12 21 12 40 0 12 -7 16 -42 18 -184 3 -165 2
-176 -17 -195 -20 -20 -32 -21 -276 -21 -220 0 -255 -2 -255 -15 0 -13 37 -15
273 -15 253 0 275 1 290 18 15 16 17 47 17 220 0 189 -1 203 -20 222 -11 11
-33 20 -50 20 -17 0 -39 -9 -50 -20z"/>
<path d="M50 320 c-17 -17 -20 -33 -20 -100 0 -91 17 -120 70 -120 53 0 70 29
70 120 0 91 -17 120 -70 120 -17 0 -39 -9 -50 -20z"/>
</g>
</svg>
