<?xml version="1.0" standalone="no"?>
<!DOCTYPE svg PUBLIC "-//W3C//DTD SVG 20010904//EN"
 "http://www.w3.org/TR/2001/REC-SVG-20010904/DTD/svg10.dtd">
<svg version="1.0" xmlns="http://www.w3.org/2000/svg"
 width="100.000000pt" height="100.000000pt" viewBox="0 0 100.000000 100.000000"
 preserveAspectRatio="xMidYMid meet">
<metadata>
Created by potrace 1.16, written by Peter Selinger 2001-2019
</metadata>
<g transform="translate(0.000000,100.000000) scale(0.100000,-0.100000)"
fill="#000000" stroke="none">
<path d="M248 852 c-9 -13 -31 -21 -69 -25 -134 -16 -215 -72 -162 -113 17
-13 17 -15 1 -27 -23 -18 -13 -59 23 -93 26 -24 39 -29 99 -32 l70 -4 51 -84
c28 -46 65 -95 83 -109 26 -20 37 -39 51 -91 18 -65 17 -65 -4 -80 -11 -8 -21
-24 -21 -35 0 -17 7 -19 70 -19 82 0 93 11 80 80 -17 84 -21 80 83 80 89 0 94
-1 120 -28 15 -15 27 -33 27 -40 0 -6 -18 -23 -40 -37 -60 -38 -46 -55 44 -55
l72 0 23 65 c18 50 21 75 16 113 -11 82 32 148 108 167 22 6 27 13 27 39 0 41
-40 124 -76 158 -46 43 -94 58 -188 58 -56 0 -114 -8 -177 -24 l-94 -25 -57
62 c-32 34 -58 69 -58 78 0 40 -77 56 -102 21z"/>
<path d="M942 440 c-41 -25 -55 -61 -47 -125 5 -38 2 -63 -14 -105 -27 -70
-27 -70 9 -70 26 0 33 7 61 61 29 58 30 63 18 110 -11 42 -10 57 3 99 9 28 13
50 10 50 -4 0 -22 -9 -40 -20z"/>
<path d="M268 310 c-3 -74 -5 -81 -38 -115 -44 -45 -33 -57 51 -53 63 3 64 3
82 41 17 36 17 42 3 90 -12 38 -26 61 -55 84 l-39 32 -4 -79z"/>
</g>
</svg>
