<?xml version="1.0" standalone="no"?>
<!DOCTYPE svg PUBLIC "-//W3C//DTD SVG 20010904//EN"
 "http://www.w3.org/TR/2001/REC-SVG-20010904/DTD/svg10.dtd">
<svg version="1.0" xmlns="http://www.w3.org/2000/svg"
 width="90.000000pt" height="90.000000pt" viewBox="0 0 90.000000 90.000000"
 preserveAspectRatio="xMidYMid meet">
<metadata>
Created by potrace 1.16, written by Peter Selinger 2001-2019
</metadata>
<g transform="translate(0.000000,90.000000) scale(0.100000,-0.100000)"
fill="#000000" stroke="none">
<path d="M310 788 c-78 -30 -169 -123 -199 -203 -20 -53 -22 -75 -19 -187 3
-125 3 -127 33 -158 17 -17 68 -50 114 -73 l84 -42 127 0 127 0 84 42 c46 23
98 56 114 73 30 31 30 33 33 158 3 112 1 134 -19 187 -31 82 -121 173 -202
203 -78 30 -200 29 -277 0z m299 -251 c56 -28 97 -86 106 -147 l6 -45 -19 31
c-33 52 -71 75 -116 72 -38 -3 -41 -5 -44 -34 -3 -28 0 -32 30 -38 52 -10 108
-52 108 -80 0 -52 -117 -106 -230 -106 -113 0 -230 54 -230 106 0 28 56 70
108 80 30 6 33 10 30 38 -3 29 -6 31 -44 34 -45 3 -83 -20 -116 -72 l-19 -31
6 45 c13 87 75 151 166 170 75 16 206 4 258 -23z"/>
<path d="M397 414 c-12 -13 -8 -47 10 -66 15 -17 15 -18 -11 -18 -29 0 -90
-23 -114 -42 -24 -21 13 -27 168 -27 155 0 192 6 168 27 -24 19 -85 42 -114
42 -26 0 -26 1 -10 19 10 11 16 30 14 43 -3 20 -9 23 -53 26 -28 2 -54 0 -58
-4z"/>
</g>
</svg>
