<?xml version="1.0" standalone="no"?>
<!DOCTYPE svg PUBLIC "-//W3C//DTD SVG 20010904//EN"
 "http://www.w3.org/TR/2001/REC-SVG-20010904/DTD/svg10.dtd">
<svg version="1.0" xmlns="http://www.w3.org/2000/svg"
 width="100.000000pt" height="100.000000pt" viewBox="0 0 100.000000 100.000000"
 preserveAspectRatio="xMidYMid meet">
<metadata>
Created by potrace 1.16, written by Peter Selinger 2001-2019
</metadata>
<g transform="translate(0.000000,100.000000) scale(0.100000,-0.100000)"
fill="#000000" stroke="none">
<path d="M349 937 c-71 -30 -103 -53 -161 -115 -70 -75 -100 -142 -106 -235
-3 -44 0 -95 7 -120 17 -61 70 -128 135 -171 31 -20 56 -41 56 -47 0 -5 -7
-26 -16 -47 -28 -67 -5 -115 76 -158 28 -15 57 -19 150 -19 93 0 122 4 150 19
84 44 104 91 72 166 l-19 44 57 37 c112 72 155 155 149 287 -3 60 -11 90 -33
137 -38 78 -133 173 -211 211 -51 25 -74 29 -155 32 -81 2 -103 -1 -151 -21z
m185 -291 c18 -7 43 -28 56 -46 12 -17 34 -43 47 -56 32 -33 24 -40 -19 -17
-25 14 -55 18 -128 18 -73 0 -103 -4 -128 -18 -42 -23 -52 -16 -21 15 13 14
37 41 52 61 23 31 60 52 100 56 4 1 23 -5 41 -13z m56 -168 l45 -23 1 -100 c0
-79 5 -111 22 -154 24 -56 22 -67 -18 -98 -51 -39 -191 -46 -270 -12 -69 29
-75 45 -48 111 17 42 22 74 22 153 l1 100 45 23 c30 15 62 22 100 22 38 0 70
-7 100 -22z"/>
</g>
</svg>
